# xmcd CD database file
#
# Track frame offsets:
#	150
#	22650
#	46772
#	68705
#	86695
#	102822
#	121807
#	156022
#	174585
#	188242
#
# Disc length: 2730 seconds
#
# Revision: 1
# Processed by: cddbd v1.5.2PL0 Copyright (c) Steve Scherf et al.
# Submitted via: CDex 1.51
#
DISCID=6e0aa80a
DTITLE=Kenya Lighthawk - In a Different Light
DYEAR=1993
DGENRE=New Age
TTITLE0=First Flight
TTITLE1=Natural Beauty
TTITLE2=Evening Song
TTITLE3=Wyoming
TTITLE4=Urban Jungle
TTITLE5=Harem Dance
TTITLE6=Reflections
TTITLE7=Hearts of Space
TTITLE8=Wind Song
TTITLE9=Tonight
EXTD=YEAR: 1993
EXTT0=
EXTT1=
EXTT2=
EXTT3=
EXTT4=
EXTT5=
EXTT6=
EXTT7=
EXTT8=
EXTT9=
PLAYORDER=
